<?xml version="1.0" standalone="no"?>
<!DOCTYPE svg PUBLIC "-//W3C//DTD SVG 20010904//EN"
 "http://www.w3.org/TR/2001/REC-SVG-20010904/DTD/svg10.dtd">
<svg version="1.0" xmlns="http://www.w3.org/2000/svg"
 width="500.000000pt" height="501.000000pt" viewBox="0 0 500.000000 501.000000"
 preserveAspectRatio="xMidYMid meet">

<g transform="translate(0.000000,501.000000) scale(0.100000,-0.100000)"
fill="#000000" stroke="none">
<path d="M2220 4985 c-574 -67 -1077 -311 -1486 -719 -195 -196 -322 -367
-450 -611 -305 -580 -366 -1269 -168 -1902 138 -444 402 -844 759 -1151 843
-724 2070 -801 3000 -188 154 102 251 181 391 321 394 393 638 890 715 1455
20 144 18 509 -4 650 -48 304 -115 520 -239 771 -347 702 -1013 1206 -1783
1348 -223 42 -516 52 -735 26z m1850 -1060 c59 -31 69 -104 21 -157 l-29 -33
-429 -3 c-279 -2 -440 0 -464 7 -47 14 -69 40 -76 88 -5 42 21 87 61 103 11 5
216 9 454 9 368 1 437 -1 462 -14z m-1670 -225 c102 -29 242 -97 317 -154 436
-331 492 -970 119 -1363 -22 -24 -38 -45 -35 -47 2 -2 47 -32 99 -66 114 -75
303 -261 372 -365 107 -164 186 -365 211 -535 8 -52 12 -98 10 -102 -2 -5
-607 -8 -1344 -8 l-1341 0 6 27 c3 16 8 53 12 83 21 177 134 439 258 598 98
126 284 290 394 346 17 9 32 20 32 24 0 5 -16 24 -36 43 -94 90 -188 262 -226
415 -28 113 -30 303 -4 409 88 366 360 632 726 710 99 22 333 13 430 -15z
m1679 -396 c13 -9 29 -32 37 -50 12 -29 12 -39 0 -68 -28 -67 -22 -66 -409
-66 l-349 0 -29 29 c-23 23 -29 38 -29 71 0 33 6 48 29 71 l29 29 349 0 c306
0 351 -2 372 -16z m-37 -601 c74 -14 104 -111 54 -170 l-24 -28 -346 -3 c-300
-2 -350 -1 -376 13 -49 25 -66 98 -34 144 34 48 57 51 389 50 171 0 322 -3
337 -6z"/>
<path d="M2055 3521 c-285 -46 -503 -230 -591 -498 -26 -79 -29 -101 -28 -218
1 -112 4 -141 27 -210 78 -237 272 -419 510 -481 384 -99 779 131 883 516 24
87 24 271 0 358 -37 139 -132 286 -242 375 -70 57 -195 121 -278 142 -73 18
-215 26 -281 16z"/>
<path d="M1632 1964 c-259 -140 -448 -355 -548 -622 -13 -34 -24 -65 -24 -67
0 -3 493 -5 1096 -5 l1095 0 -6 23 c-15 46 -67 164 -100 222 -104 186 -279
352 -472 449 l-71 36 -51 -26 c-227 -113 -524 -117 -774 -9 -44 19 -81 35 -81
34 -1 0 -30 -16 -64 -35z"/>
</g>
</svg>
