<?xml version="1.0" standalone="no"?>
<!DOCTYPE svg PUBLIC "-//W3C//DTD SVG 20010904//EN"
 "http://www.w3.org/TR/2001/REC-SVG-20010904/DTD/svg10.dtd">
<svg version="1.0" xmlns="http://www.w3.org/2000/svg"
 width="500.000000pt" height="500.000000pt" viewBox="0 0 500.000000 500.000000"
 preserveAspectRatio="xMidYMid meet">

<g transform="translate(0.000000,500.000000) scale(0.100000,-0.100000)"
fill="#000000" stroke="none">
<path d="M1090 4220 l0 -780 160 0 160 0 0 625 0 625 1403 0 1402 -1 -201
-102 c-111 -56 -391 -196 -623 -312 l-421 -210 0 -1407 0 -1408 -780 0 -780 0
-2 468 -3 467 -157 3 -158 3 0 -626 0 -625 940 0 940 0 0 -470 0 -470 935 467
935 468 0 2032 0 2033 -1875 0 -1875 0 0 -780z"/>
<path d="M1720 3437 l0 -307 -780 0 -780 0 0 -315 0 -315 780 0 780 0 0 -312
0 -313 467 468 468 467 -468 467 -467 468 0 -308z"/>
</g>
</svg>
